<?xml version="1.0" standalone="no"?>
<!DOCTYPE svg PUBLIC "-//W3C//DTD SVG 20010904//EN"
 "http://www.w3.org/TR/2001/REC-SVG-20010904/DTD/svg10.dtd">
<svg version="1.0" xmlns="http://www.w3.org/2000/svg"
 width="500.000000pt" height="499.000000pt" viewBox="0 0 500.000000 499.000000"
 preserveAspectRatio="xMidYMid meet">
<metadata>
Created by potrace 1.16, written by Peter Selinger 2001-2019
</metadata>
<g transform="translate(0.000000,499.000000) scale(0.100000,-0.100000)"
fill="#000000" stroke="none">
<path d="M1 3818 c1 -719 5 -1138 10 -1083 70 733 473 1415 1084 1830 l70 48
5 -1506 5 -1505 30 -44 c86 -123 272 -120 350 7 l30 48 5 1110 5 1110 358
-797 357 -798 0 -1114 0 -1114 -44 0 c-25 0 -109 11 -188 24 -533 91 -1002
342 -1385 739 -386 402 -629 932 -682 1487 -5 49 -9 -413 -10 -1087 l-1 -1173
2500 0 2500 0 -2 1178 c0 647 -3 1161 -5 1142 -14 -144 -26 -238 -43 -320
-191 -938 -905 -1687 -1835 -1925 -117 -30 -314 -65 -365 -65 -20 0 -20 19
-20 2490 l0 2490 -210 0 -210 0 -2 -859 -3 -858 -349 779 c-192 428 -347 780
-345 782 2 2 61 22 131 44 144 46 278 77 423 96 88 12 -33 14 -1032 15 l-1133
1 1 -1172z"/>
<path d="M2835 4974 c451 -61 907 -260 1255 -549 513 -426 837 -1035 899
-1695 5 -48 9 420 10 1088 l1 1172 -1132 -1 c-1000 -1 -1121 -3 -1033 -15z"/>
</g>
</svg>
